<svg xmlns="http://www.w3.org/2000/svg" viewBox="0 0 24 24" width="20" height="20" fill="none">
    <path d="M15.9351 11.3742C15.6807 10.1626 14.3271 9.29233 11.6198 7.55186C8.67534 5.6589 7.20302 4.71243 6.0105 5.07707C5.6066 5.20057 5.23456 5.41773 4.92227 5.71235C4 6.58224 4 8.38816 4 12C4 15.6118 4 17.4178 4.92227 18.2876C5.23456 18.5823 5.6066 18.7994 6.0105 18.9229C7.20302 19.2876 8.67534 18.3411 11.6198 16.4481C14.3271 14.7077 15.6807 13.8374 15.9351 12.6258C16.0216 12.2135 16.0216 11.7865 15.9351 11.3742Z" stroke="currentColor" stroke-width="1.5" stroke-linejoin="round"/>
    <path d="M20 4V20" stroke="currentColor" stroke-width="1.5" stroke-linecap="round"/>
</svg>
